<?xml version="1.0" encoding="iso-8859-1"?>
<!-- Generator: Adobe Illustrator 19.0.0, SVG Export Plug-In . SVG Version: 6.00 Build 0)  -->
<svg version="1.1" id="Capa_1" xmlns="http://www.w3.org/2000/svg" xmlns:xlink="http://www.w3.org/1999/xlink" x="0px" y="0px"
	 viewBox="0 0 512 512" style="enable-background:new 0 0 512 512;" xml:space="preserve" fill="#668AFE">
<g>
	<g>
		<path d="M256,150c-58.448,0-106,47.552-106,106s47.552,106,106,106s106-47.552,106-106S314.448,150,256,150z M256,332
			c-41.906,0-76-34.094-76-76s34.094-76,76-76s76,34.094,76,76S297.906,332,256,332z"/>
	</g>
</g>
<g>
	<g>
		<circle cx="256" cy="256" r="15"/>
	</g>
</g>
<g>
	<g>
		<path d="M481.498,241L481.498,241c-3.562-54.721-26.561-105.676-65.691-144.807C376.676,57.063,325.721,34.064,271,30.502V0h-30
			v30.502c-54.721,3.562-105.676,26.561-144.807,65.691C57.063,135.324,34.064,186.279,30.502,241H0v30h30.502
			c3.562,54.721,26.561,105.676,65.692,144.807c39.131,39.13,90.086,62.129,144.807,65.691V512h30v-30.502
			c54.721-3.562,105.676-26.561,144.807-65.691c39.13-39.131,62.129-90.086,65.691-144.807H512v-30H481.498z M451.431,271
			c-7.31,96.143-84.289,173.121-180.431,180.431V392h-30v59.431C144.857,444.121,67.879,367.143,60.569,271H120v-30H60.569
			C67.879,144.857,144.857,67.879,241,60.569V120h30V60.569c96.143,7.31,173.121,84.289,180.431,180.431H392v30H451.431z"/>
	</g>
</g>
<g>
</g>
<g>
</g>
<g>
</g>
<g>
</g>
<g>
</g>
<g>
</g>
<g>
</g>
<g>
</g>
<g>
</g>
<g>
</g>
<g>
</g>
<g>
</g>
<g>
</g>
<g>
</g>
<g>
</g>
</svg>
